<mxfile host="app.diagrams.net" modified="2023-07-06T06:33:30.455Z" agent="Mozilla/5.0 (Windows NT 10.0; Win64; x64) AppleWebKit/537.36 (KHTML, like Gecko) Chrome/114.0.0.0 Safari/537.36" etag="P5SbPdW0Q4Fe9ZZaRcCL" version="21.6.1" type="github">
  <diagram name="第 1 页" id="VyFROzzWMLoVkarw4Fqi">
    <mxGraphModel dx="1050" dy="1718" grid="1" gridSize="10" guides="1" tooltips="1" connect="1" arrows="1" fold="1" page="1" pageScale="1" pageWidth="827" pageHeight="1169" math="0" shadow="0">
      <root>
        <mxCell id="0" />
        <mxCell id="1" parent="0" />
        <mxCell id="ZkYKPxifv9pPPBa-4pMk-1" value="" style="rounded=0;whiteSpace=wrap;html=1;fontSize=18;" vertex="1" parent="1">
          <mxGeometry x="199" y="250" width="641" height="390" as="geometry" />
        </mxCell>
        <mxCell id="ZkYKPxifv9pPPBa-4pMk-2" value="" style="rounded=0;whiteSpace=wrap;html=1;fillColor=#f5f5f5;fontColor=#333333;strokeColor=#666666;" vertex="1" parent="1">
          <mxGeometry x="230" y="280" width="580" height="150" as="geometry" />
        </mxCell>
        <mxCell id="ZkYKPxifv9pPPBa-4pMk-3" value="&lt;span style=&quot;font-size: 18px;&quot;&gt;TopicA-partition-0&lt;/span&gt;" style="rounded=0;whiteSpace=wrap;html=1;fillColor=#d5e8d4;strokeColor=#82b366;" vertex="1" parent="1">
          <mxGeometry x="250" y="320" width="160" height="70" as="geometry" />
        </mxCell>
        <mxCell id="ZkYKPxifv9pPPBa-4pMk-4" value="&lt;font style=&quot;font-size: 18px;&quot;&gt;controller&lt;/font&gt;" style="rounded=0;whiteSpace=wrap;html=1;fillColor=#dae8fc;strokeColor=#6c8ebf;" vertex="1" parent="1">
          <mxGeometry x="480" y="320" width="120" height="70" as="geometry" />
        </mxCell>
        <mxCell id="ZkYKPxifv9pPPBa-4pMk-5" value="Kafka Cluster" style="text;html=1;strokeColor=none;fillColor=none;align=center;verticalAlign=middle;whiteSpace=wrap;rounded=0;fontSize=18;" vertex="1" parent="1">
          <mxGeometry x="440" y="250" width="160" height="30" as="geometry" />
        </mxCell>
        <mxCell id="ZkYKPxifv9pPPBa-4pMk-6" value="" style="rounded=0;whiteSpace=wrap;html=1;" vertex="1" parent="1">
          <mxGeometry x="200" y="-90" width="640" height="210" as="geometry" />
        </mxCell>
        <mxCell id="ZkYKPxifv9pPPBa-4pMk-8" value="Zookeeper" style="text;html=1;strokeColor=none;fillColor=none;align=center;verticalAlign=middle;whiteSpace=wrap;rounded=0;fontSize=18;" vertex="1" parent="1">
          <mxGeometry x="470" y="-90" width="60" height="30" as="geometry" />
        </mxCell>
        <mxCell id="ZkYKPxifv9pPPBa-4pMk-9" value="&lt;font style=&quot;font-size: 18px;&quot;&gt;/brokers/ids/[0,1,2]&lt;/font&gt;" style="rounded=0;whiteSpace=wrap;html=1;verticalAlign=top;" vertex="1" parent="1">
          <mxGeometry x="220" y="-50" width="180" height="100" as="geometry" />
        </mxCell>
        <mxCell id="ZkYKPxifv9pPPBa-4pMk-10" value="" style="rounded=0;whiteSpace=wrap;html=1;" vertex="1" parent="1">
          <mxGeometry x="450" y="-50" width="220" height="100" as="geometry" />
        </mxCell>
      </root>
    </mxGraphModel>
  </diagram>
</mxfile>
